HIERARCHY
ROOT Hips
{
	OFFSET 0.000000 83.214638 0.000000
	CHANNELS 6 Xposition Yposition Zposition Xrotation Yrotation Zrotation
	JOINT Pelvis
	{
		OFFSET 0.000000 0.000000 0.000000
		CHANNELS 3 Xrotation Yrotation Zrotation
		JOINT LeftUpLeg
		{
			OFFSET 8.479700 -4.795502 -0.379100
			CHANNELS 3 Xrotation Yrotation Zrotation
			JOINT LeftLeg
			{
				OFFSET 0.024144 -32.555107 0.112900
				CHANNELS 3 Xrotation Yrotation Zrotation
				JOINT LeftFoot
				{
					OFFSET -0.024144 -32.638630 -3.012600
					CHANNELS 3 Xrotation Yrotation Zrotation
					JOINT LeftToeBase
					{
						OFFSET 0.970200 -13.225400 11.864200
						CHANNELS 3 Xrotation Yrotation Zrotation
						End Site
						{
							OFFSET 0.000000 12.319262 0.000000
						}
					}
					JOINT LFootTongue
					{
						OFFSET 1.142400 -1.059800 6.665200
						CHANNELS 3 Xrotation Yrotation Zrotation
						End Site
						{
							OFFSET 0.000000 12.319262 0.000000
						}
					}
				}
				JOINT LeftPantLeg
				{
					OFFSET 0.918482 -16.533964 -2.284700
					CHANNELS 3 Xrotation Yrotation Zrotation
					End Site
					{
						OFFSET 0.350399 24.744368 0.000000
					}
				}
			}
		}
		JOINT RightUpLeg
		{
			OFFSET -8.479700 -4.795502 -0.379100
			CHANNELS 3 Xrotation Yrotation Zrotation
			JOINT RightLeg
			{
				OFFSET -0.023144 -32.555092 0.112900
				CHANNELS 3 Xrotation Yrotation Zrotation
				JOINT RightFoot
				{
					OFFSET 0.023144 -32.638641 -3.012700
					CHANNELS 3 Xrotation Yrotation Zrotation
					JOINT RightToeBase
					{
						OFFSET -0.970200 -13.225400 11.864200
						CHANNELS 3 Xrotation Yrotation Zrotation
						End Site
						{
							OFFSET 0.000000 12.319244 0.000000
						}
					}
					JOINT RFootTongue
					{
						OFFSET -1.142200 -1.059800 6.665200
						CHANNELS 3 Xrotation Yrotation Zrotation
						End Site
						{
							OFFSET 0.000000 12.319243 0.000000
						}
					}
				}
				JOINT RightPantLeg
				{
					OFFSET -0.919482 -16.533978 -2.284800
					CHANNELS 3 Xrotation Yrotation Zrotation
					End Site
					{
						OFFSET -0.350400 24.744419 0.000000
					}
				}
			}
		}
	}
	JOINT Spine
	{
		OFFSET 0.000000 7.722000 1.166200
		CHANNELS 3 Xrotation Yrotation Zrotation
		JOINT Spine1
		{
			OFFSET 0.000000 12.024101 0.248800
			CHANNELS 3 Xrotation Yrotation Zrotation
			JOINT Spine2
			{
				OFFSET 0.000000 11.502998 -0.491200
				CHANNELS 3 Xrotation Yrotation Zrotation
				JOINT Neck
				{
					OFFSET 0.000000 18.430702 -3.123100
					CHANNELS 3 Xrotation Yrotation Zrotation
					JOINT Head
					{
						OFFSET 0.000000 9.051102 1.034000
						CHANNELS 3 Xrotation Yrotation Zrotation
						JOINT HairB
						{
							OFFSET 0.208400 24.786102 24.822300
							CHANNELS 3 Xrotation Yrotation Zrotation
							End Site
							{
								OFFSET 0.000000 32.263779 0.000000
							}
						}
						JOINT HairA
						{
							OFFSET -7.081100 24.428299 23.196600
							CHANNELS 3 Xrotation Yrotation Zrotation
							End Site
							{
								OFFSET 0.000000 32.263779 0.000000
							}
						}
						JOINT Hat
						{
							OFFSET 16.728800 15.048294 -15.439601
							CHANNELS 3 Xrotation Yrotation Zrotation
							End Site
							{
								OFFSET 0.000000 32.263779 0.000000
							}
						}
					}
				}
				JOINT LeftShoulder
				{
					OFFSET 6.197800 13.665199 -4.064700
					CHANNELS 3 Xrotation Yrotation Zrotation
					JOINT LeftArm
					{
						OFFSET 7.778100 -0.187103 -1.709300
						CHANNELS 3 Xrotation Yrotation Zrotation
						JOINT LeftForeArm
						{
							OFFSET 22.049376 0.000000 0.000000
							CHANNELS 3 Xrotation Yrotation Zrotation
							JOINT LeftHand
							{
								OFFSET 23.009392 0.000000 0.000000
								CHANNELS 3 Xrotation Yrotation Zrotation
								JOINT LeftHandThumb1
								{
									OFFSET 3.507191 -2.063065 3.133727
									CHANNELS 3 Xrotation Yrotation Zrotation
									JOINT LeftHandThumb2
									{
										OFFSET 3.101337 -1.790558 1.790558
										CHANNELS 3 Xrotation Yrotation Zrotation
										JOINT LeftHandThumb3
										{
											OFFSET 3.058640 -1.765907 1.765906
											CHANNELS 3 Xrotation Yrotation Zrotation
											End Site
											{
												OFFSET -0.415260 3.926476 -0.049563
											}
										}
									}
								}
								JOINT LeftHandIndex1
								{
									OFFSET 11.334419 -0.901459 3.706815
									CHANNELS 3 Xrotation Yrotation Zrotation
									JOINT LeftHandIndex2
									{
										OFFSET 3.283112 0.000000 0.000000
										CHANNELS 3 Xrotation Yrotation Zrotation
										JOINT LeftHandIndex3
										{
											OFFSET 3.323853 0.000000 0.000000
											CHANNELS 3 Xrotation Yrotation Zrotation
											End Site
											{
												OFFSET -1.135597 3.097809 0.402452
											}
										}
									}
								}
								JOINT LeftHandMiddle1
								{
									OFFSET 11.335861 0.000000 0.000000
									CHANNELS 3 Xrotation Yrotation Zrotation
									JOINT LeftHandMiddle2
									{
										OFFSET 3.410492 0.000000 0.000000
										CHANNELS 3 Xrotation Yrotation Zrotation
										JOINT LeftHandMiddle3
										{
											OFFSET 3.312172 0.000000 0.000000
											CHANNELS 3 Xrotation Yrotation Zrotation
											End Site
											{
												OFFSET -1.150200 3.080154 0.400270
											}
										}
									}
								}
								JOINT LeftHandRing1
								{
									OFFSET 11.514786 -0.013176 -3.003090
									CHANNELS 3 Xrotation Yrotation Zrotation
									JOINT LeftHandRing2
									{
										OFFSET 3.053307 0.000000 0.000000
										CHANNELS 3 Xrotation Yrotation Zrotation
										JOINT LeftHandRing3
										{
											OFFSET 3.295807 0.000000 0.000000
											CHANNELS 3 Xrotation Yrotation Zrotation
											End Site
											{
												OFFSET -1.281006 3.013344 0.375733
											}
										}
									}
								}
								JOINT LeftHandPinky1
								{
									OFFSET 10.518692 -0.960396 -5.730441
									CHANNELS 3 Xrotation Yrotation Zrotation
									JOINT LeftHandPinky2
									{
										OFFSET 2.861649 0.000000 0.000000
										CHANNELS 3 Xrotation Yrotation Zrotation
										JOINT LeftHandPinky3
										{
											OFFSET 2.863380 0.000000 0.000000
											CHANNELS 3 Xrotation Yrotation Zrotation
											End Site
											{
												OFFSET -0.843597 2.711159 0.369971
											}
										}
									}
								}
							}
							JOINT LSleeve
							{
								OFFSET 6.676277 -0.344902 -1.011730
								CHANNELS 3 Xrotation Yrotation Zrotation
								End Site
								{
									OFFSET 0.000000 14.885353 0.000000
								}
							}
						}
					}
				}
				JOINT RightShoulder
				{
					OFFSET -6.197800 13.665199 -4.064700
					CHANNELS 3 Xrotation Yrotation Zrotation
					JOINT RightArm
					{
						OFFSET -7.778100 -0.187103 -1.709300
						CHANNELS 3 Xrotation Yrotation Zrotation
						JOINT RightForeArm
						{
							OFFSET -22.049376 0.000000 0.000000
							CHANNELS 3 Xrotation Yrotation Zrotation
							JOINT RightHand
							{
								OFFSET -23.009392 0.000000 0.000000
								CHANNELS 3 Xrotation Yrotation Zrotation
								JOINT RightHandThumb1
								{
									OFFSET -3.507191 -2.063065 3.133727
									CHANNELS 3 Xrotation Yrotation Zrotation
									JOINT RightHandThumb2
									{
										OFFSET -3.101337 -1.790558 1.790558
										CHANNELS 3 Xrotation Yrotation Zrotation
										JOINT RightHandThumb3
										{
											OFFSET -3.058640 -1.765907 1.765906
											CHANNELS 3 Xrotation Yrotation Zrotation
											End Site
											{
												OFFSET 0.415260 3.926476 -0.049563
											}
										}
									}
								}
								JOINT RightHandIndex1
								{
									OFFSET -11.334419 -0.901459 3.706815
									CHANNELS 3 Xrotation Yrotation Zrotation
									JOINT RightHandIndex2
									{
										OFFSET -3.283112 0.000000 0.000000
										CHANNELS 3 Xrotation Yrotation Zrotation
										JOINT RightHandIndex3
										{
											OFFSET -3.323853 0.000000 0.000000
											CHANNELS 3 Xrotation Yrotation Zrotation
											End Site
											{
												OFFSET 1.135597 3.097809 0.402452
											}
										}
									}
								}
								JOINT RightHandMiddle1
								{
									OFFSET -11.335861 0.000000 0.000000
									CHANNELS 3 Xrotation Yrotation Zrotation
									JOINT RightHandMiddle2
									{
										OFFSET -3.410492 0.000000 0.000000
										CHANNELS 3 Xrotation Yrotation Zrotation
										JOINT RightHandMiddle3
										{
											OFFSET -3.312172 0.000000 0.000000
											CHANNELS 3 Xrotation Yrotation Zrotation
											End Site
											{
												OFFSET 1.150200 3.080154 0.400270
											}
										}
									}
								}
								JOINT RightHandRing1
								{
									OFFSET -11.514786 -0.013176 -3.003090
									CHANNELS 3 Xrotation Yrotation Zrotation
									JOINT RightHandRing2
									{
										OFFSET -3.053307 0.000000 0.000000
										CHANNELS 3 Xrotation Yrotation Zrotation
										JOINT RightHandRing3
										{
											OFFSET -3.295807 0.000000 0.000000
											CHANNELS 3 Xrotation Yrotation Zrotation
											End Site
											{
												OFFSET 1.281006 3.013344 0.375733
											}
										}
									}
								}
								JOINT RightHandPinky1
								{
									OFFSET -10.518692 -0.960396 -5.730441
									CHANNELS 3 Xrotation Yrotation Zrotation
									JOINT RightHandPinky2
									{
										OFFSET -2.861649 0.000000 0.000000
										CHANNELS 3 Xrotation Yrotation Zrotation
										JOINT RightHandPinky3
										{
											OFFSET -2.863380 0.000000 0.000000
											CHANNELS 3 Xrotation Yrotation Zrotation
											End Site
											{
												OFFSET 0.843597 2.711159 0.369971
											}
										}
									}
								}
							}
							JOINT RSleeve
							{
								OFFSET -6.676277 -0.344902 -1.011730
								CHANNELS 3 Xrotation Yrotation Zrotation
								End Site
								{
									OFFSET 0.000000 14.885353 0.000000
								}
							}
						}
					}
				}
				JOINT Backpack
				{
					OFFSET 0.000000 -2.471497 36.677502
					CHANNELS 3 Xrotation Yrotation Zrotation
					End Site
					{
						OFFSET 0.000000 20.427315 0.000000
					}
				}
				JOINT Hood
				{
					OFFSET 0.000000 18.754097 -10.431000
					CHANNELS 3 Xrotation Yrotation Zrotation
					JOINT Hood1
					{
						OFFSET 0.000000 -5.011002 -7.685901
						CHANNELS 3 Xrotation Yrotation Zrotation
						End Site
						{
							OFFSET 0.000000 9.175140 0.000000
						}
					}
				}
				JOINT LHoodieString
				{
					OFFSET 5.250500 16.397697 3.089900
					CHANNELS 3 Xrotation Yrotation Zrotation
					JOINT LHoodieString1
					{
						OFFSET 0.257700 -6.364304 3.694600
						CHANNELS 3 Xrotation Yrotation Zrotation
						JOINT LHoodieString2
						{
							OFFSET 0.000000 -9.643799 2.679100
							CHANNELS 3 Xrotation Yrotation Zrotation
							End Site
							{
								OFFSET 0.000000 10.009018 0.000000
							}
						}
					}
				}
				JOINT RHoodieString
				{
					OFFSET -5.250500 16.397697 3.089900
					CHANNELS 3 Xrotation Yrotation Zrotation
					JOINT RHoodieString1
					{
						OFFSET -0.257700 -6.364304 3.694600
						CHANNELS 3 Xrotation Yrotation Zrotation
						JOINT RHoodieString2
						{
							OFFSET 0.000000 -9.643799 2.679100
							CHANNELS 3 Xrotation Yrotation Zrotation
							End Site
							{
								OFFSET 0.000000 10.009018 0.000000
							}
						}
					}
				}
			}
			JOINT LBackpack_Strap
			{
				OFFSET 15.223200 -7.719803 -6.610900
				CHANNELS 3 Xrotation Yrotation Zrotation
				End Site
				{
					OFFSET 0.000000 16.040596 0.000000
				}
			}
			JOINT RBackpack_Strap
			{
				OFFSET -15.223000 -7.719803 -6.610900
				CHANNELS 3 Xrotation Yrotation Zrotation
				End Site
				{
					OFFSET 0.000000 16.040596 0.000000
				}
			}
		}
	}
	JOINT BoyFacialAnim_Joint
	{
		OFFSET 1.000000 -82.208099 -1.550900
		CHANNELS 3 Xrotation Yrotation Zrotation
		End Site
		{
			OFFSET 0.000000 30.012791 0.000000
		}
	}
}
MOTION
Frames: 4
Frame Time: 0.016667
-0.169195 73.867844 0.174997 3.016509 -58.257354 6.570238 -0.000000 -0.000001 0.000000 -35.249705 10.175262 24.287698 43.161437 -7.481313 -9.789106 -9.609690 -2.806334 -8.082836 0.000000 0.000001 -0.000000 0.000000 0.000001 -0.000000 -0.000000 -0.000002 0.000001 -32.837798 -8.272810 -25.543232 48.058430 2.420122 -7.553103 -19.172843 2.835359 20.742969 0.000000 -0.000002 0.000000 0.000000 -0.000002 0.000000 -0.000000 0.000000 0.000000 11.191590 0.111554 -2.787778 8.434589 0.027713 -5.592322 8.457051 0.027854 -5.591869 -21.555715 25.063299 12.062590 -0.293969 25.465862 -3.208982 0.000000 -0.000000 0.000000 0.000000 -0.000000 0.000000 0.000000 -0.000000 0.000000 -6.221658 -11.503846 -4.023810 -23.062123 9.568699 -36.639648 0.046189 -43.169425 -0.011129 22.743722 -5.685688 15.979226 -1.060969 -7.956212 8.492270 2.373407 19.986103 -2.038333 0.000001 0.000001 -0.000000 13.340879 -1.006689 10.682274 -0.163439 0.317207 -31.105621 -0.000001 -0.000000 0.000002 8.500036 -0.329625 -0.915285 0.231521 0.661162 -29.901848 -0.000001 0.000000 -0.000002 6.121121 3.156104 -16.211138 0.046239 0.321028 -30.125475 0.000000 0.000002 0.000002 -5.637149 7.705247 -13.879834 0.225735 0.277915 -46.588372 -0.000000 0.000002 0.000000 0.000001 -0.000001 -0.000002 -5.488243 10.658279 2.466538 -41.473790 -26.755632 30.079081 24.955228 111.863097 -23.308241 -8.702494 12.422953 -9.801973 0.262727 10.061713 -10.891939 1.381156 -17.410711 3.018932 0.000002 -0.000002 0.000001 19.443597 11.174443 -13.340170 -0.109208 -0.315769 18.035666 0.000000 0.000000 0.000002 4.320489 2.436950 -4.811725 0.344846 -0.463976 26.890299 -0.000001 0.000000 0.000002 -7.011526 -10.695725 5.718768 0.110915 -0.095434 26.155851 -0.000001 -0.000002 0.000003 -19.433539 -20.238202 5.987847 0.209896 -0.086879 36.844622 -0.000005 0.000000 0.000000 0.000002 -0.000000 -0.000000 0.000001 0.000001 -0.000001 0.000001 0.000001 -0.000001 0.000001 0.000001 -0.000001 0.000001 0.000001 -0.000001 0.000001 0.000001 -0.000001 0.000001 0.000002 -0.000002 0.000001 0.000001 -0.000001 0.000001 0.000001 -0.000001 0.000001 0.000002 -0.000002 0.000002 0.000002 -0.000000 0.000002 0.000002 -0.000000 -0.000000 -0.000001 0.000000 
-0.158002 73.859901 0.157684 3.041149 -58.231638 6.552361 -0.000000 0.000004 -0.000000 -35.327559 10.162274 24.335995 43.187068 -7.537033 -9.774908 -9.592742 -2.801695 -8.079805 0.000000 0.000001 -0.000000 0.000000 0.000001 -0.000000 0.000000 -0.000002 0.000001 -32.853309 -8.258441 -25.500983 48.086980 2.392964 -7.536263 -19.186765 2.820509 20.793879 -0.000000 -0.000000 -0.000000 -0.000000 -0.000000 -0.000000 -0.000000 -0.000002 0.000001 11.154805 0.128484 -2.743870 8.361921 0.067335 -5.504499 8.384385 0.067497 -5.504040 -20.955324 25.198830 11.976181 -0.203329 25.677154 -3.208820 0.000000 -0.000000 0.000001 0.000000 -0.000000 0.000001 0.000000 -0.000000 0.000001 -5.897214 -11.434716 -4.094846 -23.105794 9.541879 -36.578180 -0.430850 -43.369078 0.211679 22.768267 -5.683127 16.086395 -0.879754 -7.813327 8.278617 2.373408 19.986102 -2.038334 0.000002 -0.000001 0.000000 13.334326 -1.036148 10.359190 -0.182387 0.317281 -31.248320 -0.000001 -0.000001 -0.000005 8.499509 -0.328306 -1.009021 0.251438 0.631771 -29.985978 -0.000001 -0.000003 -0.000000 6.121516 3.146020 -16.098240 0.080338 0.300959 -30.077175 -0.000001 0.000003 -0.000005 -5.734513 7.618931 -13.497792 0.245223 0.256983 -46.515303 0.000000 0.000000 -0.000000 0.000003 -0.000001 0.000000 -5.087703 10.716897 2.386527 -41.616708 -26.593128 29.801403 27.048690 111.876183 -25.310950 -8.426422 11.265955 -10.149968 0.161850 10.414138 -10.760821 1.389877 -17.409812 3.034350 -0.000000 -0.000001 0.000002 19.555192 10.955346 -14.215785 -0.109607 -0.315377 17.606192 -0.000000 0.000003 -0.000001 4.375303 2.490912 -5.767850 0.342244 -0.462194 26.411525 0.000001 -0.000000 -0.000004 -7.223180 -10.390309 4.582360 0.110967 -0.091257 25.535041 0.000002 -0.000001 0.000000 -19.709042 -19.569342 4.721566 0.207396 -0.083932 36.069286 -0.000002 -0.000000 -0.000002 -0.000000 -0.000002 -0.000001 0.000001 0.000003 -0.000002 0.000001 0.000003 -0.000002 0.000001 0.000003 -0.000002 0.000001 0.000003 -0.000002 0.000001 0.000003 -0.000003 0.000001 -0.000002 -0.000000 0.000001 0.000003 -0.000002 0.000001 0.000003 -0.000003 0.000001 -0.000002 -0.000000 0.000002 -0.000001 0.000000 0.000002 -0.000001 0.000000 -0.000000 0.000004 -0.000000 
-0.142997 73.844566 0.141803 3.078425 -58.215970 6.550823 -0.000000 -0.000001 -0.000000 -35.420111 10.142054 24.381549 43.244072 -7.572180 -9.762523 -9.591881 -2.800008 -8.079887 -0.000000 -0.000001 -0.000000 -0.000000 -0.000001 -0.000000 -0.000001 -0.000003 0.000001 -32.894072 -8.229553 -25.458973 48.141270 2.370711 -7.536333 -19.207534 2.798822 20.861365 -0.000000 0.000002 -0.000000 -0.000000 0.000002 -0.000000 0.000000 0.000001 0.000004 11.182517 0.143112 -2.709300 8.418548 0.098050 -5.435015 8.441000 0.098159 -5.434542 -20.687893 25.289872 11.929349 -0.113995 25.894258 -3.222224 0.000000 -0.000000 0.000001 0.000000 -0.000000 0.000001 0.000000 -0.000000 0.000001 -5.908040 -11.406745 -4.124969 -23.202743 9.567589 -36.508351 -0.784466 -43.550089 0.142521 22.848569 -5.652405 16.178181 -0.879648 -7.742594 8.328707 2.373409 19.986102 -2.038334 -0.000001 -0.000001 -0.000001 13.268570 -0.549106 10.431558 -0.182232 0.317223 -31.198952 -0.000001 0.000001 -0.000000 8.506220 0.092388 -0.917208 0.251021 0.632009 -29.949700 -0.000000 -0.000000 0.000000 6.117629 3.143150 -16.039683 0.080056 0.300760 -30.030105 -0.000001 0.000001 -0.000007 -5.752449 7.603052 -13.427846 0.244824 0.257186 -46.451546 0.000001 0.000001 -0.000000 0.000003 0.000003 0.000000 -4.944351 10.745120 2.290185 -41.728143 -26.359942 29.303721 31.240227 112.174649 -29.235723 -7.457837 10.204584 -10.911872 0.253652 10.146815 -10.866892 1.389863 -17.409829 3.034325 0.000000 0.000001 0.000001 19.555685 10.849992 -14.310299 -0.109767 -0.315230 17.427311 0.000001 0.000001 0.000000 4.395321 2.480605 -5.884547 0.341315 -0.463241 26.238725 -0.000000 0.000000 0.000002 -7.253351 -10.295831 4.470746 0.110999 -0.090333 25.398072 -0.000001 0.000002 0.000001 -19.678084 -19.367609 4.682579 0.206945 -0.083437 35.949335 -0.000004 0.000001 -0.000001 -0.000001 -0.000000 -0.000003 0.000002 0.000002 0.000000 0.000002 0.000002 0.000000 0.000002 0.000002 0.000000 0.000002 0.000002 0.000000 0.000002 0.000002 0.000001 0.000001 -0.000002 0.000001 0.000002 0.000002 0.000000 0.000002 0.000002 0.000001 0.000001 -0.000002 0.000001 0.000003 0.000001 0.000000 0.000003 0.000001 0.000000 -0.000000 -0.000001 -0.000000 
-0.125438 73.830887 0.128119 3.121422 -58.209270 6.558251 -0.000000 -0.000002 -0.000000 -35.507613 10.122394 24.417882 43.299264 -7.598684 -9.748127 -9.593195 -2.796742 -8.081507 -0.000000 0.000002 -0.000000 -0.000000 0.000002 -0.000000 0.000001 0.000001 0.000000 -32.936624 -8.191857 -25.420646 48.186664 2.354140 -7.535526 -19.219925 2.773697 20.936961 -0.000000 0.000000 -0.000000 -0.000000 0.000000 -0.000000 -0.000000 -0.000001 -0.000001 11.206753 0.157590 -2.676657 8.467457 0.128420 -5.368924 8.489926 0.128549 -5.368457 -20.398457 25.378644 11.886848 -0.024568 26.120529 -3.255903 0.000000 -0.000000 -0.000000 0.000000 -0.000000 -0.000000 0.000000 -0.000000 -0.000000 -5.914315 -11.396586 -4.145974 -23.347110 9.645222 -36.446777 -1.115192 -43.763402 0.039133 22.975527 -5.590287 16.230206 -0.833024 -7.696175 8.471578 2.373406 19.986102 -2.038333 -0.000000 -0.000001 0.000002 13.148572 -0.152183 10.582372 -0.181317 0.317279 -31.121972 -0.000001 0.000000 -0.000000 8.510356 0.379070 -0.790059 0.249863 0.632825 -29.887880 -0.000001 -0.000000 -0.000003 6.301402 3.763312 -15.938182 0.079959 0.300724 -29.987474 -0.000000 0.000002 -0.000002 -5.757944 7.590690 -13.381693 0.244372 0.257143 -46.375933 0.000000 0.000000 -0.000000 0.000003 0.000000 0.000001 -4.707634 10.766311 2.133765 -41.787217 -26.098334 28.599062 29.848036 111.261186 -27.947437 -9.059283 9.227815 -12.053751 0.390462 9.767112 -10.996392 1.388996 -17.406073 3.036269 -0.000001 0.000003 0.000001 19.537109 10.750112 -14.301136 -0.109900 -0.315091 17.255141 -0.000001 0.000000 0.000005 4.410910 2.459037 -5.885789 0.340503 -0.463574 26.084953 -0.000000 0.000000 -0.000000 -7.077079 -10.207444 4.534578 0.110970 -0.089772 25.313721 0.000001 0.000000 0.000000 -19.588545 -19.216758 4.827898 0.206850 -0.083284 35.913558 -0.000001 0.000000 0.000000 0.000003 0.000002 -0.000002 -0.000001 0.000002 -0.000002 -0.000001 0.000002 -0.000002 -0.000001 0.000002 -0.000002 -0.000001 0.000002 -0.000002 -0.000001 0.000002 -0.000002 -0.000001 0.000002 -0.000002 -0.000001 0.000002 -0.000002 -0.000001 0.000002 -0.000002 -0.000001 0.000002 -0.000002 0.000003 0.000001 -0.000001 0.000003 0.000001 -0.000001 -0.000000 -0.000002 -0.000000 
